<svg xmlns="http://www.w3.org/2000/svg" xmlns:xlink="http://www.w3.org/1999/xlink" width="443.061" height="96.063" viewBox="0 0 443.061 96.063">
  <defs>
    <clipPath id="clip-path">
      <path id="Path_15137" data-name="Path 15137" d="M81.533,56.274h0c.071-.215.136-.435.206-.651-.07.216-.136.435-.209.65" transform="translate(-81.533 -55.624)" fill="none"/>
    </clipPath>
    <linearGradient id="linear-gradient" x1="-440.688" y1="50.826" x2="-435.283" y2="50.826" gradientUnits="objectBoundingBox">
      <stop offset="0" stop-color="#3698cc"/>
      <stop offset="0.362" stop-color="#3698cc"/>
      <stop offset="0.613" stop-color="#163d80"/>
      <stop offset="1" stop-color="#163d80"/>
    </linearGradient>
    <clipPath id="clip-path-2">
      <path id="Path_15138" data-name="Path 15138" d="M81.718,55.733c.1-.311.207-.623.3-.936h0c-.094.314-.2.625-.3.937" transform="translate(-81.718 -54.796)" fill="none"/>
    </clipPath>
    <linearGradient id="linear-gradient-2" x1="-306.062" y1="36.296" x2="-302.317" y2="36.296" xlink:href="#linear-gradient"/>
    <clipPath id="clip-path-3">
      <path id="Path_15139" data-name="Path 15139" d="M67.138,8.536h0c-.142-.108-.286-.208-.429-.315.142.106.286.209.428.316" transform="translate(-66.71 -8.22)" fill="none"/>
    </clipPath>
    <linearGradient id="linear-gradient-3" x1="-176.02" y1="274.657" x2="-173.382" y2="274.657" xlink:href="#linear-gradient"/>
    <clipPath id="clip-path-4">
      <path id="Path_15142" data-name="Path 15142" d="M1.813,54.855c.068.226.146.451.219.676-.071-.225-.147-.449-.216-.676Z" transform="translate(-1.813 -54.855)" fill="none"/>
    </clipPath>
    <linearGradient id="linear-gradient-4" x1="-9.394" y1="50.241" x2="-4.212" y2="50.241" xlink:href="#linear-gradient"/>
    <clipPath id="clip-path-5">
      <path id="Path_15143" data-name="Path 15143" d="M2.3,56.366l0,0c-.1-.3-.2-.607-.3-.911.1.3.189.61.292.914" transform="translate(-2.006 -55.452)" fill="none"/>
    </clipPath>
    <linearGradient id="linear-gradient-5" x1="-7.686" y1="36.428" x2="-3.854" y2="36.428" xlink:href="#linear-gradient"/>
    <clipPath id="clip-path-6">
      <path id="Path_15149" data-name="Path 15149" d="M37.387,23.615l0,.006v-.006Z" transform="translate(-37.387 -23.615)" fill="none"/>
    </clipPath>
    <linearGradient id="linear-gradient-6" x1="-18668.146" y1="12244.177" x2="-18168.824" y2="12244.177" xlink:href="#linear-gradient"/>
    <clipPath id="clip-path-7">
      <path id="Path_15132" data-name="Path 15132" d="M2.1,30A8.643,8.643,0,0,0,7.564,40.864a8.492,8.492,0,0,0,10.727-5.535,8.641,8.641,0,0,0-5.465-10.86,8.421,8.421,0,0,0-2.633-.425A8.529,8.529,0,0,0,2.1,30" transform="translate(-1.679 -24.045)" fill="none"/>
    </clipPath>
    <linearGradient id="linear-gradient-7" x1="-0.063" y1="3.591" x2="-0.001" y2="3.591" gradientUnits="objectBoundingBox">
      <stop offset="0" stop-color="#1e6aa1"/>
      <stop offset="1" stop-color="#0d938f"/>
    </linearGradient>
    <clipPath id="clip-path-8">
      <path id="Path_15133" data-name="Path 15133" d="M15.794,66.509a8.689,8.689,0,0,0,1.883,12.038,8.443,8.443,0,0,0,11.891-1.907A8.689,8.689,0,0,0,27.684,64.6a8.441,8.441,0,0,0-11.89,1.908" transform="translate(-14.167 -62.955)" fill="none"/>
    </clipPath>
    <linearGradient id="linear-gradient-8" x1="-0.772" y1="1.346" x2="-0.713" y2="1.346" gradientUnits="objectBoundingBox">
      <stop offset="0" stop-color="#6d2775"/>
      <stop offset="1" stop-color="#435184"/>
    </linearGradient>
    <clipPath id="clip-path-9">
      <path id="Path_15134" data-name="Path 15134" d="M58.083,64.6A8.687,8.687,0,0,0,56.2,76.641,8.441,8.441,0,0,0,68.09,78.547a8.687,8.687,0,0,0,1.883-12.038A8.441,8.441,0,0,0,58.083,64.6" transform="translate(-54.573 -62.955)" fill="none"/>
    </clipPath>
    <linearGradient id="linear-gradient-9" x1="-3.142" y1="1.346" x2="-3.084" y2="1.346" gradientUnits="objectBoundingBox">
      <stop offset="0" stop-color="#8e1e57"/>
      <stop offset="1" stop-color="#5e2473"/>
    </linearGradient>
    <clipPath id="clip-path-10">
      <path id="Path_15135" data-name="Path 15135" d="M72.942,24.47a8.642,8.642,0,0,0-5.466,10.86A8.492,8.492,0,0,0,78.2,40.864,8.642,8.642,0,0,0,83.668,30a8.529,8.529,0,0,0-8.094-5.957,8.409,8.409,0,0,0-2.632.425" transform="translate(-67.057 -24.045)" fill="none"/>
    </clipPath>
    <linearGradient id="linear-gradient-10" x1="-3.842" y1="3.7" x2="-3.784" y2="3.7" xlink:href="#linear-gradient-7"/>
    <clipPath id="clip-path-11">
      <path id="Path_15136" data-name="Path 15136" d="M42.885,0A8.568,8.568,0,0,0,34.37,8.62a8.514,8.514,0,1,0,17.027,0A8.567,8.567,0,0,0,42.885,0Z" transform="translate(-34.37)" fill="none"/>
    </clipPath>
    <linearGradient id="linear-gradient-11" x1="-2.206" y1="5.432" x2="-2.142" y2="5.432" gradientUnits="objectBoundingBox">
      <stop offset="0" stop-color="#381e46"/>
      <stop offset="1" stop-color="#891e54"/>
    </linearGradient>
    <clipPath id="clip-path-12">
      <path id="Path_15140" data-name="Path 15140" d="M65.909,7.635c.306.215.606.439.907.662-.3-.223-.6-.451-.9-.666Z" transform="translate(-65.909 -7.632)" fill="none"/>
    </clipPath>
    <linearGradient id="linear-gradient-12" x1="-82.283" y1="131.32" x2="-81.035" y2="131.32" xlink:href="#linear-gradient"/>
    <clipPath id="clip-path-13">
      <path id="Path_15141" data-name="Path 15141" d="M17.4,9.346c-.249-.273-.5-.542-.756-.809.257.267.507.537.756.809" transform="translate(-16.643 -8.537)" fill="none"/>
    </clipPath>
    <linearGradient id="linear-gradient-13" x1="-24.914" y1="106.731" x2="-23.417" y2="106.731" xlink:href="#linear-gradient"/>
    <clipPath id="clip-path-14">
      <path id="Path_15144" data-name="Path 15144" d="M16.641,9.327l0,0c.257.267.507.537.756.809.068.074.132.151.2.225.173.194.346.387.515.582l.271.317q.211.25.419.5c.1.121.2.245.3.367.121.149.239.3.356.452s.216.276.322.414.188.251.281.377q.756,1.019,1.436,2.066l0,.008c.165.255.325.511.483.769l.034.057c4.761,7.785,6.364,16.694,3.689,25.029a26.741,26.741,0,0,1-2.031,4.714,40.254,40.254,0,0,1,13.087,4.458,41.108,41.108,0,0,0,1.931-4.9,41.062,41.062,0,0,0,1.3-5.184h-.008a41.232,41.232,0,0,0,.649-8.663v-.032q-.037-1.134-.138-2.275c-.029-.349-.062-.7-.1-1.047-.012-.123-.027-.247-.042-.369q-.093-.8-.216-1.6l0-.006h0a47.492,47.492,0,0,0-6.8-17.864,54.418,54.418,0,0,0-4.352-6A47.573,47.573,0,0,0,16.641,9.327" transform="translate(-16.641 -2.539)" fill="none"/>
    </clipPath>
    <linearGradient id="linear-gradient-14" x1="-0.665" y1="1.909" x2="-0.622" y2="1.909" xlink:href="#linear-gradient-7"/>
    <clipPath id="clip-path-15">
      <path id="Path_15145" data-name="Path 15145" d="M6.976,42.027A53.248,53.248,0,0,0,0,44.367a48.944,48.944,0,0,0,2.055,12.39c.069.226.145.451.216.676.1.3.191.609.3.911,9.511-4.735,19.875-5.476,28.415-1.473A26.246,26.246,0,0,1,39.2,62.908a41.074,41.074,0,0,1,8.231-11.224,40.51,40.51,0,0,0-4.007-3.373,40.083,40.083,0,0,0-17.551-7.306l-.011,0a43.692,43.692,0,0,0-6.893-.542,47.816,47.816,0,0,0-12,1.566" transform="translate(0 -40.461)" fill="none"/>
    </clipPath>
    <linearGradient id="linear-gradient-15" x1="0" y1="2.239" x2="0.024" y2="2.239" xlink:href="#linear-gradient-8"/>
    <clipPath id="clip-path-16">
      <path id="Path_15146" data-name="Path 15146" d="M47.493,47.683A40.4,40.4,0,0,0,43.439,51.1a41.074,41.074,0,0,0-8.231,11.224l-.006.011a47.585,47.585,0,0,0-4.875,18.5,54.808,54.808,0,0,0,.04,7.443,47.257,47.257,0,0,0,12.275,1.849l.179,0h.521c.317,0,.633,0,.949,0-1.508-10.62,1-20.828,7.4-27.816a26.253,26.253,0,0,1,8.212-6.05,41.122,41.122,0,0,1-8-11.4,40.051,40.051,0,0,0-4.406,2.816" transform="translate(-30.22 -44.867)" fill="none"/>
    </clipPath>
    <linearGradient id="linear-gradient-16" x1="-1.149" y1="1" x2="-1.111" y2="1" xlink:href="#linear-gradient-9"/>
    <clipPath id="clip-path-17">
      <path id="Path_15147" data-name="Path 15147" d="M46.506,36.458A40.9,40.9,0,0,0,57.747,57.926l.008.009A46.527,46.527,0,0,0,73.628,68.349a53.252,53.252,0,0,0,7,2.26A48.55,48.55,0,0,0,86.162,59.36c.074-.215.139-.434.209-.65.1-.312.2-.624.3-.937-10.442-1.828-19.257-7.4-23.843-15.719a26.79,26.79,0,0,1-3.145-9.777,40.193,40.193,0,0,1-13.175,4.182" transform="translate(-46.506 -32.276)" fill="none"/>
    </clipPath>
    <linearGradient id="linear-gradient-17" x1="-0.815" y1="1.233" x2="-0.794" y2="1.233" xlink:href="#linear-gradient-7"/>
    <clipPath id="clip-path-18">
      <path id="Path_15148" data-name="Path 15148" d="M47.562,25.737a26.016,26.016,0,0,1-5.1.506,25.951,25.951,0,0,1-5.057-.516v.006q.124.8.216,1.6c.015.122.029.246.042.369.04.35.072.7.1,1.047q.1,1.14.138,2.275v.032a41.232,41.232,0,0,1-.649,8.663h.008a39.7,39.7,0,0,0,5.2.35,39.732,39.732,0,0,0,5.266-.352A40.193,40.193,0,0,0,60.9,35.533l.01,0A46.679,46.679,0,0,0,75.6,23.46a54.248,54.248,0,0,0,4.289-6.045,48.047,48.047,0,0,0-8.857-8.8c-.142-.106-.286-.209-.428-.316-.3-.223-.6-.447-.907-.662-4.946,9.49-12.9,16.258-22.134,18.1" transform="translate(-37.257 -7.635)" fill="none"/>
    </clipPath>
    <linearGradient id="linear-gradient-18" x1="-0.88" y1="2.424" x2="-0.856" y2="2.424" xlink:href="#linear-gradient-9"/>
  </defs>
  <g id="Group_1114" data-name="Group 1114" transform="translate(266 768)">
    <g id="Group_1006" data-name="Group 1006" transform="translate(-173.691 -705.024)" clip-path="url(#clip-path)">
      <rect id="Rectangle_596" data-name="Rectangle 596" width="0.209" height="0.651" transform="translate(0 0)" fill="url(#linear-gradient)"/>
    </g>
    <g id="Group_1008" data-name="Group 1008" transform="translate(-173.482 -705.962)" clip-path="url(#clip-path-2)">
      <rect id="Rectangle_597" data-name="Rectangle 597" width="0.302" height="0.937" transform="translate(0 0)" fill="url(#linear-gradient-2)"/>
    </g>
    <g id="Group_1010" data-name="Group 1010" transform="translate(-190.473 -758.694)" clip-path="url(#clip-path-3)">
      <rect id="Rectangle_598" data-name="Rectangle 598" width="0.429" height="0.316" transform="translate(0 0)" fill="url(#linear-gradient-3)"/>
    </g>
    <g id="Group_1016" data-name="Group 1016" transform="translate(-263.947 -705.895)" clip-path="url(#clip-path-4)">
      <rect id="Rectangle_601" data-name="Rectangle 601" width="0.219" height="0.676" transform="translate(0 0)" fill="url(#linear-gradient-4)"/>
    </g>
    <g id="Group_1018" data-name="Group 1018" transform="translate(-263.729 -705.219)" clip-path="url(#clip-path-5)">
      <rect id="Rectangle_602" data-name="Rectangle 602" width="0.295" height="0.914" transform="translate(0 0)" fill="url(#linear-gradient-5)"/>
    </g>
    <g id="Group_1030" data-name="Group 1030" transform="translate(-223.672 -741.264)" clip-path="url(#clip-path-6)">
      <rect id="Rectangle_608" data-name="Rectangle 608" width="0.002" height="0.006" transform="translate(0 0)" fill="url(#linear-gradient-6)"/>
    </g>
    <g id="Group_996" data-name="Group 996" transform="translate(-264.099 -740.777)" clip-path="url(#clip-path-7)">
      <rect id="Rectangle_591" data-name="Rectangle 591" width="18.516" height="19.313" transform="translate(-1.25 18.288) rotate(-89.32)" fill="url(#linear-gradient-7)"/>
    </g>
    <g id="Group_998" data-name="Group 998" transform="translate(-249.96 -696.724)" clip-path="url(#clip-path-8)">
      <rect id="Rectangle_592" data-name="Rectangle 592" width="19.3" height="18.392" transform="translate(-1.137 0)" fill="url(#linear-gradient-8)"/>
    </g>
    <g id="Group_1000" data-name="Group 1000" transform="translate(-204.214 -696.724)" clip-path="url(#clip-path-9)">
      <rect id="Rectangle_593" data-name="Rectangle 593" width="19.301" height="18.392" transform="translate(-1.137 0)" fill="url(#linear-gradient-9)"/>
    </g>
    <g id="Group_1002" data-name="Group 1002" transform="translate(-190.08 -740.777)" clip-path="url(#clip-path-10)">
      <rect id="Rectangle_594" data-name="Rectangle 594" width="19.445" height="18.655" transform="translate(-1.386 0.007) rotate(-1.105)" fill="url(#linear-gradient-10)"/>
    </g>
    <g id="Group_1004" data-name="Group 1004" transform="translate(-227.087 -768)" clip-path="url(#clip-path-11)">
      <rect id="Rectangle_595" data-name="Rectangle 595" width="17.525" height="17.73" transform="translate(-0.505 0.015) rotate(-1.681)" fill="url(#linear-gradient-11)"/>
    </g>
    <g id="Group_1012" data-name="Group 1012" transform="translate(-191.38 -759.359)" clip-path="url(#clip-path-12)">
      <rect id="Rectangle_599" data-name="Rectangle 599" width="0.907" height="0.666" transform="translate(0 0)" fill="url(#linear-gradient-12)"/>
    </g>
    <g id="Group_1014" data-name="Group 1014" transform="translate(-247.157 -758.335)" clip-path="url(#clip-path-13)">
      <rect id="Rectangle_600" data-name="Rectangle 600" width="0.756" height="0.809" transform="translate(0 0)" fill="url(#linear-gradient-13)"/>
    </g>
    <g id="Group_1020" data-name="Group 1020" transform="translate(-247.16 -765.125)" clip-path="url(#clip-path-14)">
      <rect id="Rectangle_603" data-name="Rectangle 603" width="26.512" height="49.112" transform="translate(-2.462 0.127) rotate(-2.948)" fill="url(#linear-gradient-14)"/>
    </g>
    <g id="Group_1022" data-name="Group 1022" transform="translate(-266 -722.191)" clip-path="url(#clip-path-15)">
      <rect id="Rectangle_604" data-name="Rectangle 604" width="47.433" height="22.447" transform="translate(0 0)" fill="url(#linear-gradient-15)"/>
    </g>
    <g id="Group_1024" data-name="Group 1024" transform="translate(-231.786 -717.203)" clip-path="url(#clip-path-16)">
      <rect id="Rectangle_605" data-name="Rectangle 605" width="29.73" height="45.269" transform="translate(-0.05 0)" fill="url(#linear-gradient-16)"/>
    </g>
    <g id="Group_1026" data-name="Group 1026" transform="translate(-213.347 -731.458)" clip-path="url(#clip-path-17)">
      <rect id="Rectangle_606" data-name="Rectangle 606" width="55.331" height="55.057" transform="matrix(0.778, -0.628, 0.628, 0.778, -18.737, 15.131)" fill="url(#linear-gradient-17)"/>
    </g>
    <g id="Group_1028" data-name="Group 1028" transform="translate(-223.819 -759.356)" clip-path="url(#clip-path-18)">
      <rect id="Rectangle_607" data-name="Rectangle 607" width="46.002" height="37.013" transform="translate(-3.618 0.409) rotate(-6.446)" fill="url(#linear-gradient-18)"/>
    </g>
    <path id="Path_15150" data-name="Path 15150" d="M267.3,66.718v6.057h-1.694V58.209h3.994a6.289,6.289,0,0,1,3.96,1.027,3.719,3.719,0,0,1,1.28,3.089,3.871,3.871,0,0,1-2.929,3.906l3.955,6.545h-2l-3.527-6.057Zm0-1.455h2.32a4.011,4.011,0,0,0,2.631-.712,2.652,2.652,0,0,0,.837-2.138,2.429,2.429,0,0,0-.851-2.082,4.613,4.613,0,0,0-2.735-.637h-2.2Z" transform="translate(-230.895 -760.307)" fill="#f5f5f5"/>
    <path id="Path_15151" data-name="Path 15151" d="M283.019,72.573A5.014,5.014,0,0,1,279.2,71.1a5.712,5.712,0,0,1-1.4-4.1,6.334,6.334,0,0,1,1.3-4.195,4.319,4.319,0,0,1,3.493-1.554,4.124,4.124,0,0,1,3.249,1.35,5.18,5.18,0,0,1,1.2,3.562v1.046H279.51a4.337,4.337,0,0,0,.971,2.92,3.36,3.36,0,0,0,2.6,1,8.8,8.8,0,0,0,3.488-.737v1.474a8.824,8.824,0,0,1-1.659.543,9.318,9.318,0,0,1-1.888.164m-.448-9.934a2.7,2.7,0,0,0-2.1.857,3.962,3.962,0,0,0-.922,2.371h5.71a3.627,3.627,0,0,0-.7-2.4,2.452,2.452,0,0,0-1.991-.832" transform="translate(-229.284 -759.904)" fill="#f5f5f5"/>
    <path id="Path_15152" data-name="Path 15152" d="M294.683,72.573a4.664,4.664,0,0,1-3.673-1.459,6.008,6.008,0,0,1-1.3-4.13,6.181,6.181,0,0,1,1.321-4.234,4.749,4.749,0,0,1,3.76-1.494,7.524,7.524,0,0,1,1.575.169,5.255,5.255,0,0,1,1.235.4l-.508,1.405a7.8,7.8,0,0,0-1.2-.363,5.355,5.355,0,0,0-1.146-.145q-3.329,0-3.329,4.244a5.049,5.049,0,0,0,.814,3.09,2.824,2.824,0,0,0,2.406,1.076,7.359,7.359,0,0,0,2.8-.588V72a5.956,5.956,0,0,1-2.759.568" transform="translate(-227.71 -759.904)" fill="#f5f5f5"/>
    <path id="Path_15153" data-name="Path 15153" d="M305.613,61.254a6.423,6.423,0,0,1,1.305.12l-.23,1.534a5.635,5.635,0,0,0-1.2-.149,2.913,2.913,0,0,0-2.267,1.076,3.927,3.927,0,0,0-.941,2.681v5.858h-1.654V61.453H302l.19,2.022h.079a4.813,4.813,0,0,1,1.465-1.644,3.3,3.3,0,0,1,1.883-.577" transform="translate(-226.266 -759.904)" fill="#f5f5f5"/>
    <path id="Path_15154" data-name="Path 15154" d="M311.358,61.43v7.084a2.849,2.849,0,0,0,.608,1.993,2.477,2.477,0,0,0,1.9.658,3.105,3.105,0,0,0,2.505-.936,4.728,4.728,0,0,0,.793-3.059V61.43h1.653V72.35h-1.364l-.239-1.464h-.091a3.293,3.293,0,0,1-1.41,1.235,4.744,4.744,0,0,1-2.057.428,4.171,4.171,0,0,1-2.984-.946,4.027,4.027,0,0,1-.991-3.029V61.43Z" transform="translate(-225.07 -759.881)" fill="#f5f5f5"/>
    <path id="Path_15155" data-name="Path 15155" d="M322.531,58.945a1.094,1.094,0,0,1,.28-.832,1.034,1.034,0,0,1,1.385,0,1.081,1.081,0,0,1,.289.828,1.094,1.094,0,0,1-.289.831.962.962,0,0,1-.687.274.951.951,0,0,1-.7-.274,1.114,1.114,0,0,1-.28-.831m1.793,13.879H322.67V61.9h1.654Z" transform="translate(-223.372 -760.354)" fill="#f5f5f5"/>
    <path id="Path_15156" data-name="Path 15156" d="M332.711,71.48a5.858,5.858,0,0,0,1.494-.2v1.266a3.042,3.042,0,0,1-.793.214,5.93,5.93,0,0,1-.941.085q-3.169,0-3.169-3.339v-6.5H327.74v-.8l1.564-.688.7-2.331h.957v2.53h3.169v1.286h-3.169v6.426a2.21,2.21,0,0,0,.469,1.515,1.627,1.627,0,0,0,1.285.528" transform="translate(-222.683 -760.176)" fill="#f5f5f5"/>
    <path id="Path_15157" data-name="Path 15157" d="M351.1,72.374v-7.1a2.946,2.946,0,0,0-.558-1.958,2.158,2.158,0,0,0-1.733-.652,2.8,2.8,0,0,0-2.281.886,4.208,4.208,0,0,0-.738,2.73v6.1h-1.653v-7.1a2.952,2.952,0,0,0-.558-1.958,2.173,2.173,0,0,0-1.744-.652,2.7,2.7,0,0,0-2.277.931,5.04,5.04,0,0,0-.722,3.055v5.729H337.18V61.454h1.345l.269,1.494h.079a3.252,3.252,0,0,1,1.32-1.245,4.033,4.033,0,0,1,1.908-.448q2.561,0,3.348,1.853h.08a3.476,3.476,0,0,1,1.414-1.355,4.385,4.385,0,0,1,2.113-.5,3.7,3.7,0,0,1,2.775.951,4.263,4.263,0,0,1,.922,3.044v7.124Z" transform="translate(-221.436 -759.904)" fill="#f5f5f5"/>
    <path id="Path_15158" data-name="Path 15158" d="M360.431,72.573A5.017,5.017,0,0,1,356.61,71.1a5.711,5.711,0,0,1-1.4-4.1,6.328,6.328,0,0,1,1.3-4.195A4.318,4.318,0,0,1,360,61.255a4.12,4.12,0,0,1,3.248,1.35,5.175,5.175,0,0,1,1.2,3.562v1.046h-7.523a4.337,4.337,0,0,0,.971,2.92,3.36,3.36,0,0,0,2.6,1,8.8,8.8,0,0,0,3.487-.737v1.474a8.771,8.771,0,0,1-1.659.543,9.318,9.318,0,0,1-1.888.164m-.448-9.934a2.7,2.7,0,0,0-2.1.857,3.955,3.955,0,0,0-.923,2.371h5.71a3.633,3.633,0,0,0-.7-2.4,2.454,2.454,0,0,0-1.993-.832" transform="translate(-219.053 -759.904)" fill="#f5f5f5"/>
    <path id="Path_15159" data-name="Path 15159" d="M375.134,72.374V65.31a2.852,2.852,0,0,0-.608-1.994,2.477,2.477,0,0,0-1.9-.657,3.135,3.135,0,0,0-2.51.926,4.675,4.675,0,0,0-.8,3.059v5.729h-1.654V61.454h1.345l.268,1.494h.08A3.383,3.383,0,0,1,370.78,61.7a4.631,4.631,0,0,1,2.042-.443,4.15,4.15,0,0,1,2.97.951,4.055,4.055,0,0,1,1,3.044v7.124Z" transform="translate(-217.407 -759.904)" fill="#f5f5f5"/>
    <path id="Path_15160" data-name="Path 15160" d="M384.221,71.48a5.858,5.858,0,0,0,1.494-.2v1.266a3.041,3.041,0,0,1-.793.214,5.929,5.929,0,0,1-.941.085q-3.169,0-3.169-3.339v-6.5H379.25v-.8l1.564-.688.7-2.331h.957v2.53h3.169v1.286h-3.169v6.426a2.21,2.21,0,0,0,.469,1.515,1.627,1.627,0,0,0,1.285.528" transform="translate(-215.875 -760.176)" fill="#f5f5f5"/>
    <path id="Path_15161" data-name="Path 15161" d="M125.851,53.426l-5.863-8.556h-6.471v8.556H106.48V22.714h13.16c8.122,0,13.2,4.256,13.2,11.144a9.987,9.987,0,0,1-6.254,9.7l6.819,9.873Zm-6.6-24.921h-5.733V39.211h5.733c4.3,0,6.471-2.019,6.471-5.353,0-3.378-2.171-5.353-6.471-5.353" transform="translate(-251.927 -764.998)" fill="#f5f5f5"/>
    <path id="Path_15162" data-name="Path 15162" d="M156.413,42.766H138.735c.651,2.939,3.127,4.738,6.689,4.738a7.878,7.878,0,0,0,5.863-2.281l3.6,3.948c-2.171,2.5-5.429,3.818-9.643,3.818-8.078,0-13.335-5.133-13.335-12.154,0-7.064,5.343-12.153,12.466-12.153,6.863,0,12.162,4.651,12.162,12.241,0,.526-.086,1.273-.13,1.843m-17.765-3.993h11.511a5.827,5.827,0,0,0-11.511,0" transform="translate(-248.565 -764.209)" fill="#f5f5f5"/>
    <path id="Path_15163" data-name="Path 15163" d="M181.162,29.033V48.69c0,8.774-4.691,12.81-13.117,12.81-4.43,0-8.73-1.1-11.467-3.246l2.692-4.915a13.873,13.873,0,0,0,8.253,2.676c4.778,0,6.862-2.193,6.862-6.449v-1.01A9.57,9.57,0,0,1,167,51.5c-6.471,0-11.684-4.52-11.684-11.408S160.531,28.682,167,28.682a9.339,9.339,0,0,1,7.732,3.378V29.033ZM174.473,40.09c0-3.466-2.563-5.791-6.124-5.791s-6.168,2.325-6.168,5.791,2.606,5.791,6.168,5.791,6.124-2.325,6.124-5.791" transform="translate(-245.472 -764.209)" fill="#f5f5f5"/>
    <path id="Path_15164" data-name="Path 15164" d="M205.865,42.766H188.187c.651,2.939,3.127,4.738,6.689,4.738a7.878,7.878,0,0,0,5.863-2.281l3.6,3.948c-2.171,2.5-5.429,3.818-9.643,3.818-8.078,0-13.335-5.133-13.335-12.154,0-7.064,5.343-12.153,12.466-12.153C200.7,28.682,206,33.333,206,40.923c0,.526-.086,1.273-.13,1.843M188.1,38.773h11.511a5.827,5.827,0,0,0-11.511,0" transform="translate(-242.029 -764.209)" fill="#f5f5f5"/>
    <path id="Path_15165" data-name="Path 15165" d="M205.576,23.16a3.889,3.889,0,0,1,4.213-3.818c2.519,0,4.214,1.579,4.214,3.686a4.228,4.228,0,0,1-8.427.131m.825,7.108h6.776v23.6H206.4Z" transform="translate(-238.83 -765.444)" fill="#f5f5f5"/>
    <path id="Path_15166" data-name="Path 15166" d="M240.937,39.124V52.638h-6.776V40.177c0-3.817-1.737-5.573-4.735-5.573-3.257,0-5.6,2.019-5.6,6.363v11.67h-6.776v-23.6h6.473V31.8a10.18,10.18,0,0,1,7.732-3.115c5.516,0,9.686,3.247,9.686,10.442" transform="translate(-237.313 -764.209)" fill="#f5f5f5"/>
    <path id="Path_15167" data-name="Path 15167" d="M265.868,42.766H248.19c.651,2.939,3.127,4.738,6.689,4.738a7.878,7.878,0,0,0,5.863-2.281l3.6,3.948c-2.171,2.5-5.429,3.818-9.643,3.818-8.078,0-13.335-5.133-13.335-12.154,0-7.064,5.343-12.153,12.466-12.153C260.7,28.682,266,33.333,266,40.923c0,.526-.086,1.273-.13,1.843M248.1,38.773h11.511a5.827,5.827,0,0,0-11.511,0" transform="translate(-234.099 -764.209)" fill="#f5f5f5"/>
    <path id="Path_15168" data-name="Path 15168" d="M265.041,38.132c0-9.258,7.036-15.883,16.506-15.883,5.255,0,9.643,1.931,12.509,5.441L289.539,31.9a9.742,9.742,0,0,0-7.644-3.6c-5.69,0-9.73,4.037-9.73,9.828s4.04,9.828,9.73,9.828a9.65,9.65,0,0,0,7.644-3.642l4.517,4.212c-2.867,3.554-7.254,5.485-12.554,5.485-9.425,0-16.462-6.625-16.462-15.883" transform="translate(-230.97 -765.059)" fill="#f5f5f5"/>
    <path id="Path_15169" data-name="Path 15169" d="M314.322,39.168V52.638h-6.341V49.7c-1.26,2.149-3.692,3.29-7.124,3.29-5.473,0-8.731-3.072-8.731-7.152,0-4.168,2.911-7.064,10.034-7.064h5.386c0-2.939-1.738-4.651-5.386-4.651a11.164,11.164,0,0,0-6.733,2.194L293,31.534a17.825,17.825,0,0,1,10.076-2.852c7.124,0,11.25,3.334,11.25,10.486m-6.776,6.011V42.766H302.9c-3.171,0-4.17,1.184-4.17,2.764,0,1.711,1.433,2.852,3.822,2.852a4.991,4.991,0,0,0,5-3.2" transform="translate(-227.39 -764.209)" fill="#f5f5f5"/>
    <path id="Path_15170" data-name="Path 15170" d="M330.843,28.682V35c-.565-.043-1-.087-1.52-.087-3.735,0-6.211,2.062-6.211,6.581V52.638h-6.776v-23.6h6.471v3.115c1.651-2.281,4.431-3.466,8.036-3.466" transform="translate(-224.191 -764.209)" fill="#f5f5f5"/>
    <path id="Path_15171" data-name="Path 15171" d="M354.683,42.766H337.005c.651,2.939,3.127,4.738,6.689,4.738a7.878,7.878,0,0,0,5.863-2.281l3.6,3.948c-2.172,2.5-5.429,3.818-9.643,3.818-8.078,0-13.335-5.133-13.335-12.154,0-7.064,5.343-12.153,12.466-12.153,6.863,0,12.162,4.651,12.162,12.241,0,.526-.086,1.273-.13,1.843m-17.765-3.993h11.511a5.827,5.827,0,0,0-11.511,0" transform="translate(-222.36 -764.209)" fill="#f5f5f5"/>
    <path id="Path_15172" data-name="Path 15172" d="M378.085,42.766H360.407c.651,2.939,3.127,4.738,6.689,4.738a7.878,7.878,0,0,0,5.863-2.281l3.6,3.948c-2.172,2.5-5.429,3.818-9.643,3.818-8.078,0-13.335-5.133-13.335-12.154,0-7.064,5.343-12.153,12.466-12.153,6.863,0,12.162,4.651,12.162,12.241,0,.526-.086,1.273-.13,1.843M360.32,38.773h11.511a5.827,5.827,0,0,0-11.511,0" transform="translate(-219.267 -764.209)" fill="#f5f5f5"/>
    <path id="Path_15173" data-name="Path 15173" d="M393.033,28.682V35c-.565-.043-1-.087-1.521-.087-3.735,0-6.211,2.062-6.211,6.581V52.638h-6.776v-23.6H385v3.115c1.651-2.281,4.431-3.466,8.036-3.466" transform="translate(-215.971 -764.209)" fill="#f5f5f5"/>
  </g>
</svg>
