<svg id="Layer_1" data-name="Layer 1" xmlns="http://www.w3.org/2000/svg" xmlns:xlink="http://www.w3.org/1999/xlink" viewBox="0 0 437.65 94.89"><defs><style>.cls-1{fill:url(#未命名的渐变_28);}.cls-2{fill:url(#未命名的渐变_30);}.cls-3{fill:url(#未命名的渐变_19);}.cls-4{fill:url(#未命名的渐变_28-2);}.cls-5{fill:url(#未命名的渐变_23);}.cls-6{fill:url(#未命名的渐变_69);}.cls-7{fill:url(#未命名的渐变_69-2);}.cls-8{fill:none;}.cls-9{fill:url(#未命名的渐变_69-3);}.cls-10{fill:url(#未命名的渐变_69-4);}.cls-11{fill:url(#未命名的渐变_69-5);}.cls-12{fill:url(#未命名的渐变_69-6);}.cls-13{fill:url(#未命名的渐变_69-7);}.cls-14{fill:url(#未命名的渐变_28-3);}.cls-15{fill:url(#未命名的渐变_30-2);}.cls-16{fill:url(#未命名的渐变_19-2);}.cls-17{fill:url(#未命名的渐变_28-4);}.cls-18{fill:url(#未命名的渐变_19-3);}.cls-19{fill:url(#未命名的渐变_69-8);}.cls-20{fill:#fff;}</style><linearGradient id="未命名的渐变_28" x1="22.6" y1="40.68" x2="22.41" y2="57.5" gradientUnits="userSpaceOnUse"><stop offset="0" stop-color="#1f6ba2"/><stop offset="1" stop-color="#0d938f"/></linearGradient><linearGradient id="未命名的渐变_30" x1="28.07" y1="92.06" x2="44.88" y2="92.06" gradientUnits="userSpaceOnUse"><stop offset="0" stop-color="#6d2875"/><stop offset="1" stop-color="#455285"/></linearGradient><linearGradient id="未命名的渐变_19" x1="73.25" y1="92.06" x2="90.07" y2="92.06" gradientUnits="userSpaceOnUse"><stop offset="0" stop-color="#8f1f58"/><stop offset="1" stop-color="#5f2974"/></linearGradient><linearGradient id="未命名的渐变_28-2" x1="95.47" y1="40.42" x2="95.79" y2="57.24" xlink:href="#未命名的渐变_28"/><linearGradient id="未命名的渐变_23" x1="58.83" y1="13.39" x2="59.32" y2="30.2" gradientUnits="userSpaceOnUse"><stop offset="0" stop-color="#381f46"/><stop offset="1" stop-color="#8a1f55"/></linearGradient><linearGradient id="未命名的渐变_69" x1="75.66" y1="75.66" x2="110.53" y2="75.66" gradientUnits="userSpaceOnUse"><stop offset="0" stop-color="#3798cd"/><stop offset="0.36" stop-color="#3798cd"/><stop offset="0.61" stop-color="#21407f"/><stop offset="1" stop-color="#21407f"/></linearGradient><linearGradient id="未命名的渐变_69-2" x1="96.76" y1="74.88" x2="131.69" y2="74.88" xlink:href="#未命名的渐变_69"/><linearGradient id="未命名的渐变_69-3" x1="14.05" y1="22.48" x2="105.79" y2="22.48" xlink:href="#未命名的渐变_69"/><linearGradient id="未命名的渐变_69-4" x1="68.03" y1="22" x2="159.42" y2="22" xlink:href="#未命名的渐变_69"/><linearGradient id="未命名的渐变_69-5" x1="-42.31" y1="23.08" x2="49.07" y2="23.08" xlink:href="#未命名的渐变_69"/><linearGradient id="未命名的渐变_69-6" x1="-13.63" y1="74.82" x2="21.44" y2="74.82" xlink:href="#未命名的渐变_69"/><linearGradient id="未命名的渐变_69-7" x1="7.61" y1="75.6" x2="42.6" y2="75.6" xlink:href="#未命名的渐变_69"/><linearGradient id="未命名的渐变_28-3" x1="42.16" y1="23.56" x2="43.91" y2="57.58" xlink:href="#未命名的渐变_28"/><linearGradient id="未命名的渐变_30-2" x1="12.22" y1="69.47" x2="59.08" y2="69.47" xlink:href="#未命名的渐变_30"/><linearGradient id="未命名的渐变_19-2" x1="46.02" y1="85.67" x2="75.34" y2="85.67" xlink:href="#未命名的渐变_19"/><linearGradient id="未命名的渐变_28-4" x1="95.16" y1="81.52" x2="70.24" y2="50.66" xlink:href="#未命名的渐变_28"/><linearGradient id="未命名的渐变_19-3" x1="96.19" y1="35.14" x2="54.34" y2="39.87" xlink:href="#未命名的渐变_19"/><linearGradient id="未命名的渐变_69-8" x1="36.49" y1="26.41" x2="47.13" y2="26.41" xlink:href="#未命名的渐变_69"/></defs><path class="cls-1" d="M19.91,56.64a8.39,8.39,0,0,0,10.6-5.47,8.53,8.53,0,0,0-5.4-10.72,8.39,8.39,0,0,0-10.6,5.46A8.55,8.55,0,0,0,19.91,56.64Z" transform="translate(-12.22 -13.14)"/><path class="cls-2" d="M41.42,85.17a8.34,8.34,0,0,0-11.75,1.88,8.59,8.59,0,0,0,1.86,11.89,8.34,8.34,0,0,0,11.75-1.88A8.58,8.58,0,0,0,41.42,85.17Z" transform="translate(-12.22 -13.14)"/><path class="cls-3" d="M76.72,85.17a8.58,8.58,0,0,0-1.86,11.89,8.34,8.34,0,0,0,11.75,1.88,8.58,8.58,0,0,0,1.85-11.89A8.33,8.33,0,0,0,76.72,85.17Z" transform="translate(-12.22 -13.14)"/><path class="cls-4" d="M93,40.45a8.52,8.52,0,0,0-5.4,10.72,8.38,8.38,0,0,0,10.59,5.47,8.53,8.53,0,0,0,5.4-10.73A8.37,8.37,0,0,0,93,40.45Z" transform="translate(-12.22 -13.14)"/><path class="cls-5" d="M59.07,30.16a8.51,8.51,0,1,0-8.41-8.51A8.46,8.46,0,0,0,59.07,30.16Z" transform="translate(-12.22 -13.14)"/><path class="cls-6" d="M103.41,76l.2-.65c-.07.22-.13.43-.21.64Z" transform="translate(-12.22 -13.14)"/><path class="cls-7" d="M103.61,75.34c.1-.31.21-.61.3-.92h0C103.81,74.73,103.71,75,103.61,75.34Z" transform="translate(-12.22 -13.14)"/><path class="cls-8" d="M53.9,53.36a41.8,41.8,0,0,1-1.28,5.13,43.06,43.06,0,0,1-1.91,4.84,39.53,39.53,0,0,1,4.41,2.81,40.79,40.79,0,0,1,4,3.33,39.46,39.46,0,0,1,4-3.38,41.56,41.56,0,0,1,4.35-2.78,40.67,40.67,0,0,1-3.2-10,39,39,0,0,1-5.2.35A38,38,0,0,1,53.9,53.36Z" transform="translate(-12.22 -13.14)"/><path class="cls-9" d="M87.25,22.64l-.42-.31.42.31Z" transform="translate(-12.22 -13.14)"/><path class="cls-10" d="M85.93,21.67h0l.9.66C86.53,22.11,86.23,21.88,85.93,21.67Z" transform="translate(-12.22 -13.14)"/><path class="cls-11" d="M30.83,22.68c.26.27.51.53.75.8-.24-.27-.49-.53-.75-.8Z" transform="translate(-12.22 -13.14)"/><path class="cls-12" d="M14.25,74.48l.21.67-.21-.67Z" transform="translate(-12.22 -13.14)"/><path class="cls-13" d="M14.75,76.05h0c-.11-.3-.2-.6-.3-.9C14.56,75.45,14.65,75.75,14.75,76.05Z" transform="translate(-12.22 -13.14)"/><path class="cls-14" d="M52.62,58.49a41.8,41.8,0,0,0,1.28-5.13h0a40.71,40.71,0,0,0,.64-8.55v0c0-.74-.07-1.49-.14-2.24,0-.35-.06-.69-.1-1,0-.12,0-.24,0-.36-.06-.53-.13-1.05-.22-1.58h0A46.91,46.91,0,0,0,47.32,21.9,52.83,52.83,0,0,0,43,16a47.08,47.08,0,0,0-12.19,6.7h0c.26.27.51.53.75.8l.2.22.51.58.27.31.41.5.29.36.36.45.31.41c.1.12.19.24.28.37.5.67,1,1.35,1.42,2h0c.17.25.32.5.48.76l0,.05c4.71,7.69,6.29,16.49,3.65,24.73a26.75,26.75,0,0,1-2,4.65,39.69,39.69,0,0,1,12.93,4.41A43.06,43.06,0,0,0,52.62,58.49Z" transform="translate(-12.22 -13.14)"/><path class="cls-15" d="M59.08,69.47a40.79,40.79,0,0,0-4-3.33,39.73,39.73,0,0,0-17.34-7.22h0a45.4,45.4,0,0,0-18.66,1,53.08,53.08,0,0,0-6.89,2.31,48.37,48.37,0,0,0,2,12.24l.21.67c.1.3.19.6.3.9,9.39-4.68,19.63-5.41,28.07-1.45a26,26,0,0,1,8.12,6A40.43,40.43,0,0,1,59.08,69.47Z" transform="translate(-12.22 -13.14)"/><path class="cls-16" d="M63.08,66.09a39.46,39.46,0,0,0-4,3.38A40.43,40.43,0,0,0,51,80.56h0a47.1,47.1,0,0,0-4.82,18.28,56.35,56.35,0,0,0,0,7.35A46.62,46.62,0,0,0,58.29,108c.23,0,.46,0,.69,0s.62,0,.94,0c-1.49-10.49,1-20.57,7.3-27.47a25.76,25.76,0,0,1,8.12-6,40.57,40.57,0,0,1-7.91-11.26A41.56,41.56,0,0,0,63.08,66.09Z" transform="translate(-12.22 -13.14)"/><path class="cls-17" d="M80.35,58.89a27,27,0,0,1-2-4.7,26,26,0,0,1-1.08-5,39.8,39.8,0,0,1-13,4.13A40.35,40.35,0,0,0,75.34,74.57h0A46.15,46.15,0,0,0,91,84.86a52.19,52.19,0,0,0,6.92,2.24A47.86,47.86,0,0,0,103.4,76c.08-.21.14-.42.21-.64s.2-.61.29-.92C93.59,72.61,84.88,67.11,80.35,58.89Z" transform="translate(-12.22 -13.14)"/><path class="cls-18" d="M54.25,41.13c0,.12,0,.24,0,.36,0,.35.07.69.1,1,.07.75.11,1.5.14,2.24v0a40.71,40.71,0,0,1-.64,8.55h0a38,38,0,0,0,5.13.35,39,39,0,0,0,5.2-.35,39.8,39.8,0,0,0,13-4.13h0a46,46,0,0,0,14.5-11.92,53.27,53.27,0,0,0,4.24-6,47.42,47.42,0,0,0-8.75-8.7l-.42-.31-.9-.66C81,31.05,73.19,37.73,64.07,39.55a25.57,25.57,0,0,1-5,.51,25.17,25.17,0,0,1-5-.52h0C54.12,40.08,54.19,40.6,54.25,41.13Z" transform="translate(-12.22 -13.14)"/><polygon class="cls-19" points="41.81 26.41 41.81 26.41 41.81 26.41 41.81 26.41"/><path class="cls-20" d="M310.94,86.64v6h-1.67V78.23h3.94a6.16,6.16,0,0,1,3.91,1,3.65,3.65,0,0,1,1.27,3,3.83,3.83,0,0,1-2.89,3.86l3.9,6.46h-2l-3.48-6Zm0-1.44h2.29a4,4,0,0,0,2.6-.7,2.62,2.62,0,0,0,.83-2.11,2.41,2.41,0,0,0-.84-2.06,4.61,4.61,0,0,0-2.71-.63h-2.17Z" transform="translate(-12.22 -13.14)"/><path class="cls-20" d="M328.05,92.82a5,5,0,0,1-3.77-1.46,5.64,5.64,0,0,1-1.39-4,6.26,6.26,0,0,1,1.29-4.15,4.27,4.27,0,0,1,3.45-1.53A4.07,4.07,0,0,1,330.84,83,5.15,5.15,0,0,1,332,86.49v1h-7.43a4.26,4.26,0,0,0,1,2.89,3.32,3.32,0,0,0,2.56,1,8.66,8.66,0,0,0,3.45-.73v1.46a9,9,0,0,1-1.64.54A9.17,9.17,0,0,1,328.05,92.82ZM327.61,83a2.66,2.66,0,0,0-2.07.84,3.89,3.89,0,0,0-.91,2.35h5.64a3.6,3.6,0,0,0-.69-2.37A2.43,2.43,0,0,0,327.61,83Z" transform="translate(-12.22 -13.14)"/><path class="cls-20" d="M341.13,92.82a4.62,4.62,0,0,1-3.63-1.44,6,6,0,0,1-1.28-4.08,6.09,6.09,0,0,1,1.3-4.18,4.69,4.69,0,0,1,3.72-1.48,6.82,6.82,0,0,1,1.55.17,5,5,0,0,1,1.22.39l-.5,1.39a6.53,6.53,0,0,0-1.18-.36,5,5,0,0,0-1.13-.14c-2.19,0-3.29,1.39-3.29,4.19a5,5,0,0,0,.8,3,2.8,2.8,0,0,0,2.38,1.06,7.25,7.25,0,0,0,2.77-.58v1.45A6,6,0,0,1,341.13,92.82Z" transform="translate(-12.22 -13.14)"/><path class="cls-20" d="M353.35,81.64a6.29,6.29,0,0,1,1.29.12l-.23,1.51a5.37,5.37,0,0,0-1.18-.14A2.87,2.87,0,0,0,351,84.19a3.88,3.88,0,0,0-.93,2.65v5.78h-1.63V81.84h1.35l.19,2H350a4.79,4.79,0,0,1,1.45-1.62A3.29,3.29,0,0,1,353.35,81.64Z" transform="translate(-12.22 -13.14)"/><path class="cls-20" d="M360.21,81.84v7a2.81,2.81,0,0,0,.6,2,2.46,2.46,0,0,0,1.88.65,3.07,3.07,0,0,0,2.47-.92,4.64,4.64,0,0,0,.79-3V81.84h1.63V92.62h-1.35L366,91.18h-.09a3.33,3.33,0,0,1-1.4,1.22,4.69,4.69,0,0,1-2,.42,4.12,4.12,0,0,1-3-.94,4,4,0,0,1-1-3v-7Z" transform="translate(-12.22 -13.14)"/><path class="cls-20" d="M372.92,78.91a1.06,1.06,0,0,1,.28-.82,1,1,0,0,1,1.37,0,1,1,0,0,1,.28.81,1.07,1.07,0,0,1-.28.82.93.93,0,0,1-.68.28.9.9,0,0,1-.69-.28A1.07,1.07,0,0,1,372.92,78.91Zm1.77,13.71h-1.63V81.84h1.63Z" transform="translate(-12.22 -13.14)"/><path class="cls-20" d="M383.66,91.47a5.2,5.2,0,0,0,1.47-.2v1.25a2.77,2.77,0,0,1-.78.22,6.49,6.49,0,0,1-.93.08c-2.08,0-3.13-1.1-3.13-3.3V83.11h-1.54v-.79l1.54-.68.69-2.3h.95v2.5h3.13v1.27h-3.13v6.34a2.19,2.19,0,0,0,.46,1.5A1.6,1.6,0,0,0,383.66,91.47Z" transform="translate(-12.22 -13.14)"/><path class="cls-20" d="M403.05,92.62v-7a2.92,2.92,0,0,0-.55-1.94,2.12,2.12,0,0,0-1.71-.64,2.75,2.75,0,0,0-2.25.87,4.16,4.16,0,0,0-.73,2.7v6h-1.64v-7a2.92,2.92,0,0,0-.55-1.94A2.13,2.13,0,0,0,393.9,83a2.66,2.66,0,0,0-2.25.92,5,5,0,0,0-.71,3v5.66h-1.63V81.84h1.32l.27,1.47H391a3.28,3.28,0,0,1,1.3-1.23,4.05,4.05,0,0,1,1.89-.44c1.68,0,2.79.61,3.3,1.83h.08a3.48,3.48,0,0,1,1.4-1.34,4.33,4.33,0,0,1,2.09-.49,3.64,3.64,0,0,1,2.74.94,4.25,4.25,0,0,1,.91,3v7Z" transform="translate(-12.22 -13.14)"/><path class="cls-20" d="M414.63,92.82a5,5,0,0,1-3.78-1.46,5.64,5.64,0,0,1-1.38-4,6.31,6.31,0,0,1,1.28-4.15,4.28,4.28,0,0,1,3.45-1.53A4.07,4.07,0,0,1,417.41,83a5.1,5.1,0,0,1,1.18,3.52v1h-7.43a4.26,4.26,0,0,0,1,2.89,3.35,3.35,0,0,0,2.57,1,8.61,8.61,0,0,0,3.44-.73v1.46a8.71,8.71,0,0,1-1.64.54A9.07,9.07,0,0,1,414.63,92.82ZM414.18,83a2.69,2.69,0,0,0-2.07.84,4,4,0,0,0-.91,2.35h5.64a3.6,3.6,0,0,0-.69-2.37A2.41,2.41,0,0,0,414.18,83Z" transform="translate(-12.22 -13.14)"/><path class="cls-20" d="M430.78,92.62v-7a2.8,2.8,0,0,0-.61-2,2.41,2.41,0,0,0-1.88-.65,3.12,3.12,0,0,0-2.48.91,4.66,4.66,0,0,0-.78,3v5.66h-1.64V81.84h1.33l.27,1.47h.08a3.3,3.3,0,0,1,1.4-1.23,4.64,4.64,0,0,1,2-.44,4.06,4.06,0,0,1,2.93.94,4,4,0,0,1,1,3v7Z" transform="translate(-12.22 -13.14)"/><path class="cls-20" d="M441.26,91.47a5.73,5.73,0,0,0,.84-.06,6,6,0,0,0,.64-.14v1.25a3,3,0,0,1-.78.22,6.74,6.74,0,0,1-.93.08q-3.13,0-3.13-3.3V83.11h-1.55v-.79l1.55-.68.69-2.3h.94v2.5h3.13v1.27h-3.13v6.34A2.24,2.24,0,0,0,440,91,1.62,1.62,0,0,0,441.26,91.47Z" transform="translate(-12.22 -13.14)"/><path class="cls-20" d="M150.44,68.87l-5.79-8.45h-6.4v8.45H131.3V38.54h13c8,0,13,4.2,13,11a9.86,9.86,0,0,1-6.18,9.57l6.73,9.75Zm-6.52-24.61h-5.67V54.83h5.67c4.24,0,6.39-2,6.39-5.28S148.16,44.26,143.92,44.26Z" transform="translate(-12.22 -13.14)"/><path class="cls-20" d="M184,59.12H166.48c.65,2.91,3.09,4.68,6.61,4.68a7.74,7.74,0,0,0,5.79-2.25l3.56,3.9c-2.14,2.47-5.36,3.77-9.52,3.77-8,0-13.17-5.07-13.17-12s5.28-12,12.31-12c6.78,0,12,4.6,12,12.09C184.08,57.82,184,58.56,184,59.12ZM166.4,55.18h11.37a5.76,5.76,0,0,0-11.37,0Z" transform="translate(-12.22 -13.14)"/><path class="cls-20" d="M211.45,45.56V65c0,8.67-4.63,12.66-13,12.66-4.37,0-8.62-1.08-11.33-3.21l2.66-4.85A13.77,13.77,0,0,0,198,72.21c4.72,0,6.78-2.17,6.78-6.37v-1a9.46,9.46,0,0,1-7.3,2.91c-6.39,0-11.54-4.47-11.54-11.27s5.15-11.27,11.54-11.27a9.24,9.24,0,0,1,7.64,3.34v-3Zm-6.61,10.92c0-3.42-2.53-5.72-6.05-5.72s-6.09,2.3-6.09,5.72,2.57,5.72,6.09,5.72S204.84,59.9,204.84,56.48Z" transform="translate(-12.22 -13.14)"/><path class="cls-20" d="M239.25,59.12H221.79c.64,2.91,3.09,4.68,6.61,4.68a7.78,7.78,0,0,0,5.79-2.25l3.56,3.9c-2.15,2.47-5.36,3.77-9.53,3.77-8,0-13.17-5.07-13.17-12s5.28-12,12.32-12c6.78,0,12,4.6,12,12.09C239.38,57.82,239.29,58.56,239.25,59.12ZM221.7,55.18h11.37a5.76,5.76,0,0,0-11.37,0Z" transform="translate(-12.22 -13.14)"/><path class="cls-20" d="M242.13,38.54a3.83,3.83,0,0,1,4.16-3.77c2.49,0,4.16,1.56,4.16,3.64a4.17,4.17,0,0,1-8.32.13Zm.81,7h6.69V68.87h-6.69Z" transform="translate(-12.22 -13.14)"/><path class="cls-20" d="M278.55,55.53V68.87h-6.69V56.57c0-3.77-1.72-5.51-4.68-5.51-3.22,0-5.53,2-5.53,6.29V68.87H255V45.56h6.4v2.73A10.05,10.05,0,0,1,269,45.21C274.43,45.21,278.55,48.42,278.55,55.53Z" transform="translate(-12.22 -13.14)"/><path class="cls-20" d="M306.36,59.12H288.89c.65,2.91,3.09,4.68,6.61,4.68a7.76,7.76,0,0,0,5.79-2.25l3.56,3.9c-2.14,2.47-5.36,3.77-9.52,3.77-8,0-13.17-5.07-13.17-12s5.27-12,12.31-12c6.78,0,12,4.6,12,12.09C306.48,57.82,306.4,58.56,306.36,59.12Zm-17.55-3.94h11.37a5.76,5.76,0,0,0-11.37,0Z" transform="translate(-12.22 -13.14)"/><path class="cls-20" d="M308.63,53.71c0-9.15,6.95-15.69,16.3-15.69,5.19,0,9.53,1.9,12.36,5.37l-4.46,4.16A9.63,9.63,0,0,0,325.28,44c-5.62,0-9.61,4-9.61,9.71a9.25,9.25,0,0,0,9.61,9.7,9.54,9.54,0,0,0,7.55-3.59L337.29,64c-2.83,3.51-7.17,5.41-12.4,5.41C315.58,69.39,308.63,62.85,308.63,53.71Z" transform="translate(-12.22 -13.14)"/><path class="cls-20" d="M360.84,55.57v13.3h-6.26V66c-1.24,2.12-3.65,3.25-7,3.25-5.4,0-8.62-3-8.62-7.06s2.87-7,9.91-7h5.32c0-2.9-1.71-4.59-5.32-4.59a11,11,0,0,0-6.65,2.16L339.78,48a17.6,17.6,0,0,1,10-2.82C356.77,45.21,360.84,48.51,360.84,55.57Zm-6.69,5.94V59.12h-4.59c-3.13,0-4.12,1.17-4.12,2.73s1.42,2.82,3.78,2.82A4.92,4.92,0,0,0,354.15,61.51Z" transform="translate(-12.22 -13.14)"/><path class="cls-20" d="M380.32,45.21v6.24c-.55,0-1-.08-1.5-.08-3.69,0-6.13,2-6.13,6.5v11H366V45.56h6.4v3.08C374,46.38,376.76,45.21,380.32,45.21Z" transform="translate(-12.22 -13.14)"/><path class="cls-20" d="M405.68,59.12H388.22c.64,2.91,3.09,4.68,6.61,4.68a7.78,7.78,0,0,0,5.79-2.25l3.56,3.9c-2.15,2.47-5.36,3.77-9.53,3.77-8,0-13.17-5.07-13.17-12s5.28-12,12.32-12c6.78,0,12,4.6,12,12.09C405.81,57.82,405.72,58.56,405.68,59.12Zm-17.55-3.94H399.5a5.76,5.76,0,0,0-11.37,0Z" transform="translate(-12.22 -13.14)"/><path class="cls-20" d="M431.85,59.12H414.39C415,62,417.48,63.8,421,63.8a7.78,7.78,0,0,0,5.79-2.25l3.56,3.9c-2.14,2.47-5.36,3.77-9.52,3.77-8,0-13.18-5.07-13.18-12s5.28-12,12.32-12c6.78,0,12,4.6,12,12.09C432,57.82,431.9,58.56,431.85,59.12ZM414.3,55.18h11.37a5.76,5.76,0,0,0-11.37,0Z" transform="translate(-12.22 -13.14)"/><path class="cls-20" d="M449.87,45.21v6.24c-.55,0-1-.08-1.5-.08-3.69,0-6.13,2-6.13,6.5v11h-6.7V45.56h6.4v3.08C443.57,46.38,446.31,45.21,449.87,45.21Z" transform="translate(-12.22 -13.14)"/></svg>